<svg id="Calque_1" data-name="Calque 1" xmlns="http://www.w3.org/2000/svg" viewBox="0 0 427.77 113.49"><defs><style>.cls-1{fill:#4b4d4e;}.cls-2{fill:#3a3a3b;}.cls-3{fill:#ef7e2e;}</style></defs><title>logo-hexacoffre</title><path class="cls-1" d="M102.87,137.46l3.83,10.76h0V137.46h2.9v15.71H106l-3.87-11h0v11h-2.9V137.46h3.65Z" transform="translate(114.01 -43.72)"/><path class="cls-1" d="M114.92,141c3.65-.07,4.66,2.11,4.66,6.23s-1.19,6.23-4.66,6.23c-3.65.07-4.67-2.11-4.67-6.23S111.45,141,114.92,141Zm0,10.39c1.23,0,1.63-1.21,1.63-4.16s-0.4-4.16-1.63-4.16c-1.5,0-1.63,1.74-1.63,4.16S113.43,151.41,114.92,151.41Z" transform="translate(114.01 -43.72)"/><path class="cls-1" d="M126.19,151.78h0a3.25,3.25,0,0,1-3,1.69c-1.89,0-3-1-3-3.37v-8.78h3v8.16c0,1.19.4,1.65,1.3,1.65s1.61-.64,1.61-2v-7.86h3v11.84h-2.9v-1.39Z" transform="translate(114.01 -43.72)"/><path class="cls-1" d="M132.24,149.29v0.4a1.52,1.52,0,0,0,1.58,1.72,1.35,1.35,0,0,0,1.54-1.41,1.39,1.39,0,0,0-1.1-1.34l-2.13-.77a3.28,3.28,0,0,1-2.53-3.3c0-2,1.23-3.56,4.36-3.56,2.75,0,4,1.23,4,3.37v0.48h-2.73c0-1.19-.35-1.78-1.34-1.78a1.29,1.29,0,0,0-1.43,1.28,1.48,1.48,0,0,0,1.32,1.39l1.83,0.62c1.91,0.64,2.62,1.61,2.62,3.39,0,2.49-1.85,3.72-4.4,3.72-3.41,0-4.36-1.5-4.36-3.76v-0.42h2.73Z" transform="translate(114.01 -43.72)"/><path class="cls-1" d="M142.86,141.33h2.9v1.25h0A2.87,2.87,0,0,1,148.5,141c2.49,0,3.63,1.83,3.63,6.23s-1.14,6.23-3.63,6.23a2.84,2.84,0,0,1-2.55-1.41h0v5h-3V141.33Zm4.64,9.81c1.32,0,1.58-1.32,1.58-3.89s-0.26-3.89-1.58-3.89-1.61,1.32-1.61,3.89S146.16,151.14,147.5,151.14Z" transform="translate(114.01 -43.72)"/><path class="cls-1" d="M152.76,141.33h2.9v1.58h0a3.06,3.06,0,0,1,2.73-1.89,4.63,4.63,0,0,1,.55,0V144c-0.31,0-.64,0-0.95,0a2,2,0,0,0-2.24,2.13v7.11h-3V141.33Z" transform="translate(114.01 -43.72)"/><path class="cls-1" d="M163.26,141c3.65-.07,4.66,2.11,4.66,6.23s-1.19,6.23-4.66,6.23c-3.65.07-4.67-2.11-4.67-6.23S159.78,141,163.26,141Zm0,10.39c1.23,0,1.63-1.21,1.63-4.16s-0.4-4.16-1.63-4.16c-1.5,0-1.63,1.74-1.63,4.16S161.76,151.41,163.26,151.41Z" transform="translate(114.01 -43.72)"/><path class="cls-1" d="M169.11,137.94h3v3.39h1.76v2.07h-1.76v6.4c0,0.92.2,1.3,1.08,1.3a6.29,6.29,0,0,0,.68,0v2.11a19.13,19.13,0,0,1-2,.13c-2.38,0-2.82-.73-2.82-3.12V143.4h-1.54v-2.07h1.54v-3.39Z" transform="translate(114.01 -43.72)"/><path class="cls-1" d="M176.46,147.71v0.95c0,1.39.37,2.75,1.5,2.75s1.43-.77,1.61-2.22h2.73c-0.11,2.75-1.43,4.29-4.29,4.29-4.4,0-4.58-3.39-4.58-6.34,0-3.17.62-6.12,4.71-6.12,3.54,0,4.33,2.38,4.33,6v0.68h-6Zm3.1-1.8c-0.07-1.8-.29-2.82-1.54-2.82s-1.56,1.25-1.56,2.35v0.46h3.1Zm-1.85-9.13h3l-2.16,3.17h-2.07Z" transform="translate(114.01 -43.72)"/><path class="cls-1" d="M191.81,141.33v11.24c0,3.12-1.39,4.64-4.93,4.64-2.57,0-4-1.14-4-3.17h2.9a1.06,1.06,0,0,0,.46.9,1.79,1.79,0,0,0,1,.33c1.23,0,1.67-.92,1.67-2.13v-1.56h0a3.2,3.2,0,0,1-2.53,1.45c-2.42,0-3.63-1.65-3.63-6,0-2.77.42-6,3.72-6a2.64,2.64,0,0,1,2.44,1.63h0v-1.32h2.9Zm-4.55,9.37c1.28,0,1.65-1.39,1.65-3.39,0-2.88-.37-4-1.58-4s-1.58,1.08-1.58,4.27C185.74,149.25,186,150.7,187.26,150.7Z" transform="translate(114.01 -43.72)"/><path class="cls-1" d="M195.44,147.71v0.95c0,1.39.37,2.75,1.5,2.75s1.43-.77,1.61-2.22h2.73c-0.11,2.75-1.43,4.29-4.29,4.29-4.4,0-4.58-3.39-4.58-6.34,0-3.17.62-6.12,4.71-6.12,3.54,0,4.33,2.38,4.33,6v0.68h-6Zm3.1-1.8c-0.07-1.8-.29-2.82-1.54-2.82s-1.56,1.25-1.56,2.35v0.46h3.1Z" transform="translate(114.01 -43.72)"/><path class="cls-1" d="M206.2,141c3.65-.07,4.67,2.11,4.67,6.23s-1.19,6.23-4.67,6.23c-3.65.07-4.66-2.11-4.66-6.23S202.72,141,206.2,141Zm0,10.39c1.23,0,1.63-1.21,1.63-4.16s-0.4-4.16-1.63-4.16c-1.5,0-1.63,1.74-1.63,4.16S204.7,151.41,206.2,151.41Z" transform="translate(114.01 -43.72)"/><path class="cls-1" d="M211.39,141.33h2.9v1.39h0a3.25,3.25,0,0,1,3-1.69c1.89,0,3,1,3,3.37v8.78h-3V145c0-1.19-.4-1.65-1.3-1.65s-1.61.64-1.61,2v7.85h-3V141.33Z" transform="translate(114.01 -43.72)"/><path class="cls-1" d="M223.51,149.29v0.4a1.52,1.52,0,0,0,1.58,1.72,1.35,1.35,0,0,0,1.54-1.41,1.39,1.39,0,0,0-1.1-1.34l-2.13-.77a3.28,3.28,0,0,1-2.53-3.3c0-2,1.23-3.56,4.36-3.56,2.75,0,4,1.23,4,3.37v0.48h-2.73c0-1.19-.35-1.78-1.34-1.78a1.29,1.29,0,0,0-1.43,1.28,1.48,1.48,0,0,0,1.32,1.39l1.83,0.62c1.91,0.64,2.62,1.61,2.62,3.39,0,2.49-1.85,3.72-4.4,3.72-3.41,0-4.36-1.5-4.36-3.76v-0.42h2.73Z" transform="translate(114.01 -43.72)"/><path class="cls-1" d="M233.35,141.37h2l2.2,9.46h0l2.2-9.46h2l-3.19,11.79h-2.11Z" transform="translate(114.01 -43.72)"/><path class="cls-1" d="M245.84,141.07c3.41,0,4.25,2.88,4.25,6.2s-0.86,6.21-4.25,6.21-4.25-2.88-4.25-6.21S242.46,141.07,245.84,141.07Zm2.31,6.2c0-2.55-.37-4.75-2.35-4.75s-2.27,2.2-2.27,4.75,0.37,4.75,2.27,4.75S248.16,149.82,248.16,147.27Z" transform="translate(114.01 -43.72)"/><path class="cls-1" d="M255.9,144.83c0-1.5-.4-2.31-1.74-2.31a1.7,1.7,0,0,0-1.91,1.8c0,1.39,1.45,1.65,2.9,2.13s2.88,1,2.88,3.32c0,2.49-1.61,3.7-3.81,3.7-4,0-4-3-4-4.18H252c0,1.43.4,2.73,2.2,2.73a1.85,1.85,0,0,0,2-2c0-1.58-1.45-1.91-2.88-2.4s-2.9-.9-2.9-3.34c0-2.2,1.72-3.26,3.76-3.26,3.43,0,3.56,2.38,3.59,3.76H255.9Z" transform="translate(114.01 -43.72)"/><path class="cls-1" d="M261.88,141.37h2l2.2,9.46h0l2.2-9.46h2l-3.19,11.79h-2.11Z" transform="translate(114.01 -43.72)"/><path class="cls-1" d="M270.42,144.94c0-2.68,1.14-3.87,4-3.87,3.59,0,3.59,2.16,3.59,3.39V151c0,0.48,0,.95.57,0.95a0.66,0.66,0,0,0,.44-0.11v1.32a6.73,6.73,0,0,1-1.08.11,1.37,1.37,0,0,1-1.67-1.52h0a3.34,3.34,0,0,1-2.84,1.69c-2.2,0-3.21-1.32-3.21-3.43a3.05,3.05,0,0,1,2.22-3.26l2.49-.75c1.34-.42,1.34-0.79,1.34-1.78a1.65,1.65,0,0,0-1.89-1.74,2,2,0,0,0-2,2.31v0.11h-1.85Zm5.7,1.8c-0.68.73-2.31,0.88-3.15,1.39a1.88,1.88,0,0,0-.9,1.87c0,1.19.42,2,1.67,2a2.4,2.4,0,0,0,2.38-2.24v-3Z" transform="translate(114.01 -43.72)"/><path class="cls-1" d="M279.48,137.46h1.85v15.71h-1.85V137.46Z" transform="translate(114.01 -43.72)"/><path class="cls-1" d="M284.3,147.49c0,1.8,0,4.53,2.27,4.53,1.76,0,2-1.85,2-2.73h1.85c0,1.25-.75,4.18-4,4.18-2.88,0-4.09-2-4.09-6.05,0-2.95.57-6.36,4.2-6.36s3.94,3.15,3.94,5.68v0.75H284.3Zm4.27-1.45V145.4c0-1.32-.42-2.88-2-2.88-1.94,0-2.16,2.38-2.16,3.08V146h4.2Z" transform="translate(114.01 -43.72)"/><path class="cls-1" d="M299.19,153.17h-1.76v-1.39h0a3.15,3.15,0,0,1-2.86,1.69c-3.1,0-3.1-2.35-3.1-3.74v-8.36h1.85v8.14c0,0.9.07,2.38,1.74,2.38a2.27,2.27,0,0,0,2.33-2.38v-8.14h1.85v11.79Z" transform="translate(114.01 -43.72)"/><path class="cls-1" d="M300.51,141.37h1.85v1.76h0c0.53-1.12,1.23-2.07,2.55-2.07a1.88,1.88,0,0,1,.81.13V143a5.06,5.06,0,0,0-1-.09,2.62,2.62,0,0,0-2.42,2.79v7.46h-1.85V141.37Z" transform="translate(114.01 -43.72)"/><path class="cls-1" d="M311,144.83c0-1.5-.4-2.31-1.74-2.31a1.7,1.7,0,0,0-1.91,1.8c0,1.39,1.45,1.65,2.9,2.13s2.88,1,2.88,3.32c0,2.49-1.61,3.7-3.81,3.7-4,0-4-3-4-4.18h1.85c0,1.43.4,2.73,2.2,2.73a1.85,1.85,0,0,0,2-2c0-1.58-1.45-1.91-2.88-2.4s-2.9-.9-2.9-3.34c0-2.2,1.72-3.26,3.76-3.26,3.43,0,3.57,2.38,3.59,3.76H311Z" transform="translate(114.01 -43.72)"/><path class="cls-2" d="M20.34,124.38V91.44H8.24v32.94H0.36V53.21H8.24V84.85h12.1V53.21h7.88v71.17H20.34Z" transform="translate(114.01 -43.72)"/><path class="cls-2" d="M44.31,124.38a7.7,7.7,0,0,1-7.67-7.67v-38A7.7,7.7,0,0,1,44.31,71H55.44A7.7,7.7,0,0,1,63.1,78.7v16a7.72,7.72,0,0,1-7.67,7.78H44.31v15.23h11v-7.78H63.1v6.8a7.7,7.7,0,0,1-7.67,7.67H44.31Zm11-46.55h-11V95.65h11V77.83Z" transform="translate(114.01 -43.72)"/><path class="cls-2" d="M89.24,124.38L82,106.13l-7.67,18.25H66.67L78.22,96.84,68.07,71h7.56l6.48,16.52,7-16.52h7.56L85.89,96.84,96.8,124.38H89.24Z" transform="translate(114.01 -43.72)"/><path class="cls-2" d="M108.46,124.38a7.7,7.7,0,0,1-7.67-7.67V101.59a7.7,7.7,0,0,1,7.67-7.67h5c3,0,5,1.19,6,2.7V77.83h-11v9.4H100.8V78.7A7.7,7.7,0,0,1,108.46,71h11.12a7.7,7.7,0,0,1,7.67,7.67v45.68H108.46Zm11-23.76H108.57v17.06h10.91V100.62Z" transform="translate(114.01 -43.72)"/><path class="cls-3" d="M143.13,125a7.7,7.7,0,0,1-7.67-7.67V60.23a7.7,7.7,0,0,1,7.67-7.67h11.66a7.61,7.61,0,0,1,7.56,7.67V71.46h-7.88V59.15H143.35v59.29h11.12V104.72h7.88v12.64a7.61,7.61,0,0,1-7.56,7.67H143.13Z" transform="translate(114.01 -43.72)"/><path class="cls-3" d="M177.15,125a7.7,7.7,0,0,1-7.67-7.67V78.7A7.7,7.7,0,0,1,177.15,71h10.58a7.7,7.7,0,0,1,7.67,7.67v38.66a7.7,7.7,0,0,1-7.67,7.67H177.15ZM187.73,77.4H177.26v41.26h10.48V77.4Z" transform="translate(114.01 -43.72)"/><path class="cls-3" d="M211.71,124.38H204V71h21.38V77.4H211.71V96H223v6.7H211.71v21.71Z" transform="translate(114.01 -43.72)"/><path class="cls-3" d="M239.25,124.38h-7.67V71H253V77.4H239.25V96h11.34v6.7H239.25v21.71Z" transform="translate(114.01 -43.72)"/><path class="cls-3" d="M277.69,124.38l-5.29-22.14h-5.62v22.14h-7.67V71H276.4a7.7,7.7,0,0,1,7.67,7.67V94.46a7.79,7.79,0,0,1-4.21,6.91l5.83,23h-8Zm-1.3-46.87h-9.61V96h9.61V77.51Z" transform="translate(114.01 -43.72)"/><path class="cls-3" d="M313.77,124.38H292.49V71h21.28V77.4H300.16V94h11.23v6.7H300.16V118h13.61v6.37Z" transform="translate(114.01 -43.72)"/><path class="cls-3" d="M-64.27,72.09A21.34,21.34,0,0,0-85.64,93.46a21.34,21.34,0,0,0,21.37,21.37A21.34,21.34,0,0,0-42.91,93.46,21.34,21.34,0,0,0-64.27,72.09Zm10.7,9.28a16.26,16.26,0,0,1,1.38,1.38l-2.35,2.35q-0.32-.37-0.67-0.72t-0.72-.67Zm-5.34-3.14a16.06,16.06,0,0,1,1.8.76L-58.4,82c-0.34-.17-0.69-0.34-1-0.48l-0.76-.28Zm-6.34-.88h2v3.32c-0.33,0-.65,0-1,0s-0.65,0-1,0V77.34Zm-4.28.85,1.27,3.07q-0.42.14-.84,0.31t-1,.44l-1.27-3.07A16,16,0,0,1-69.53,78.19Zm1.19,13.66,2.25-2.25-3.15-3.15a8.55,8.55,0,0,1,5-1.59,8.59,8.59,0,0,1,8.59,8.59,8.59,8.59,0,0,1-8.59,8.59,8.59,8.59,0,0,1-8.59-8.59,8.55,8.55,0,0,1,1.41-4.72ZM-75,81.37l2.35,2.35q-0.37.32-.72,0.67T-74,85.1l-2.35-2.35A16.23,16.23,0,0,1-75,81.37Zm-3.77,4.92,3.06,1.29c-0.17.34-.34,0.69-0.48,1s-0.19.5-.28,0.76l-3.06-1.29A16.06,16.06,0,0,1-78.74,86.29Zm-1.64,6.18h3.32q0,0.49,0,1t0,1h-3.32v-2Zm0.85,6.24,3.07-1.27q0.14,0.42.31,0.84c0.13,0.33.28,0.65,0.44,1l-3.07,1.27A16.15,16.15,0,0,1-79.54,98.71Zm4.29,7.1-1.38-1.38L-74,101.8c0.21,0.25.43,0.49,0.67,0.72s0.47,0.45.72,0.67Zm5.62,2.88a16.22,16.22,0,0,1-1.8-.76l1.29-3.06c0.34,0.18.69,0.34,1,.48l0.76,0.28Zm6.34,0.88h-2v-3.32q0.49,0,1,0t1,0v3.32Zm4.28-.85-1.27-3.07q0.42-.14.84-0.31t1-.44l1.27,3.07A16.1,16.1,0,0,1-59,108.73Zm5.44-3.19-2.35-2.35q0.37-.32.72-0.67t0.67-.72l2.35,2.35A16.31,16.31,0,0,1-53.58,105.53Zm3.77-4.92-3.06-1.29c0.18-.34.34-0.69,0.48-1s0.19-.5.28-0.76L-49,98.81A16.07,16.07,0,0,1-49.81,100.61Zm1.64-6.18h-3.32c0-.32,0-0.65,0-1s0-.65,0-1h3.32v2Zm-3.92-5q-0.14-.42-0.31-0.84t-0.44-1l3.07-1.27A16.16,16.16,0,0,1-49,88.19Z" transform="translate(114.01 -43.72)"/><path class="cls-3" d="M-18.79,43.72h-91A4.25,4.25,0,0,0-114,48v91a4.25,4.25,0,0,0,4.25,4.25h91a4.25,4.25,0,0,0,4.25-4.25V48A4.25,4.25,0,0,0-18.79,43.72Zm-45.48,79.34A29.59,29.59,0,0,1-93.88,93.46,29.59,29.59,0,0,1-64.27,63.85,29.59,29.59,0,0,1-34.66,93.46,29.59,29.59,0,0,1-64.27,123.07Z" transform="translate(114.01 -43.72)"/><rect class="cls-3" x="9.62" y="104.97" width="21.43" height="8.24" rx="1.42" ry="1.42"/><rect class="cls-3" x="68.42" y="104.97" width="21.43" height="8.24" rx="1.42" ry="1.42"/></svg>